<?xml version="1.0" encoding="iso-8859-1"?>
<!-- Generator: Adobe Illustrator 19.0.0, SVG Export Plug-In . SVG Version: 6.00 Build 0)  -->
<svg version="1.1" id="Capa_1" xmlns="http://www.w3.org/2000/svg" xmlns:xlink="http://www.w3.org/1999/xlink" x="0px" y="0px"
	 viewBox="0 0 512 512" style="enable-background:new 0 0 512 512;" xml:space="preserve">
<g>
	<path style="fill:#FDC9A6;" d="M392.533,347.688L196.267,151.421l61.38-68.198c8.644-9.609,8.26-24.303-0.879-33.442l0,0
		c-9.737-9.737-25.617-9.446-34.987,0.649l-71.39,76.885c-12.493,13.457-12.109,34.381,0.879,47.36l70.596,70.613l-128,128v34.133
		h296.286L392.533,347.688z"/>
	<path style="fill:#FDC9A6;" d="M342.724,263.916l-12.049-12.083c-19.968-20.028-19.917-52.446,0.111-72.405l34.389-34.287
		c20.028-19.968,52.446-19.917,72.405,0.111l12.049,12.083c19.968,20.028,19.917,52.446-0.111,72.405l-34.389,34.287
		C395.11,283.995,362.692,283.944,342.724,263.916z"/>
</g>
<path style="fill:#277BAA;" d="M374.007,138.178l82.509,82.748c12.595-19.78,10.359-46.293-6.886-63.59l-12.049-12.083
	C420.326,127.955,393.822,125.634,374.007,138.178z"/>
<g>
	<path style="fill:#176177;" d="M372.992,223.187c-0.009,0-0.026,0-0.043,0c-6.835-0.009-13.261-2.679-18.091-7.526l-12.049-12.083
		c-4.83-4.838-7.484-11.273-7.467-18.116c0.009-6.835,2.679-13.261,7.526-18.091c4.83-4.821,11.247-7.467,18.074-7.467
		c0.017,0,0.026,0,0.043,0c6.835,0.009,13.261,2.679,18.091,7.526l12.049,12.083c4.83,4.838,7.484,11.273,7.475,18.116
		c-0.009,6.844-2.679,13.269-7.526,18.091C386.236,220.541,379.819,223.187,372.992,223.187z"/>
	<path style="fill:#176177;" d="M415.164,265.495c-0.009,0-0.017,0-0.034,0c-6.844-0.009-13.269-2.679-18.091-7.526l-12.049-12.092
		c-9.967-9.993-9.941-26.24,0.051-36.207c4.83-4.821,11.247-7.467,18.074-7.467c0.017,0,0.026,0,0.043,0
		c6.835,0.009,13.261,2.679,18.091,7.526l12.049,12.092c4.83,4.838,7.484,11.273,7.475,18.108
		c-0.009,6.844-2.679,13.269-7.526,18.091C428.416,262.841,421.99,265.495,415.164,265.495z"/>
</g>
<polyline style="fill:#FDC9A6;" points="342.724,263.916 324.267,279.421 318.387,284.251 294.042,258.847 298.667,253.821 
	324.267,236.755 "/>
<g>
	<path style="fill:#6FBBC6;" d="M360.909,209.636l-12.049-12.083c-6.656-6.673-6.639-17.485,0.034-24.132l0,0
		c6.673-6.656,17.485-6.639,24.132,0.034l12.049,12.083c6.656,6.673,6.639,17.485-0.034,24.132l0,0
		C378.368,216.334,367.565,216.317,360.909,209.636z"/>
	<path style="fill:#6FBBC6;" d="M403.081,251.944l-12.049-12.083c-6.656-6.673-6.639-17.485,0.034-24.132l0,0
		c6.673-6.656,17.485-6.639,24.132,0.034l12.049,12.083c6.656,6.673,6.639,17.485-0.034,24.132l0,0
		C420.548,258.634,409.737,258.617,403.081,251.944z"/>
</g>
<path style="fill:#6CBAE5;" d="M0,477.872h512v-87.518c-85.333,0-85.333-51.2-170.675-51.2s-85.333,51.2-170.675,51.2
	c-85.325,0-85.325-51.2-170.65-51.2L0,477.872L0,477.872z"/>
<path style="fill:#4799CF;" d="M0,407.421c85.325,0,85.325,51.2,170.65,51.2c85.333,0,85.333-51.2,170.675-51.2
	s85.333,51.2,170.675,51.2v19.251H0V407.421z"/>
<path d="M396.723,339.812l-59.836-59.836l5.777-4.855c10.359,7.979,22.946,12.365,36.241,12.382c0.026,0,0.06,0,0.094,0
	c15.923,0,30.899-6.187,42.172-17.434l12.083-12.049c0,0,0,0,0.009,0c0.009,0,0,0,0-0.009l22.298-22.229
	c23.322-23.262,23.373-61.158,0.119-84.471l-12.049-12.083c-11.264-11.298-26.257-17.536-42.206-17.562c-0.034,0-0.06,0-0.094,0
	c-15.923,0-30.899,6.187-42.172,17.434l-34.381,34.287c-16.819,16.768-21.47,41.131-14.071,62.174l-10.931,7.287l-91.75-91.733
	l55.962-62.182c11.682-12.979,11.162-32.836-1.195-45.184c-6.374-6.366-15.061-9.847-23.825-9.609
	c-9.003,0.171-17.331,3.9-23.45,10.487l-71.39,76.885c-15.684,16.896-15.206,42.897,1.092,59.204l64.572,64.572L94.694,360.394
	c-1.655-0.981-3.319-1.963-4.975-2.953C67.746,344.258,45.022,330.621,0,330.621v17.067c40.303,0,60.041,11.844,80.93,24.38
	c21.973,13.184,44.689,26.82,89.719,26.82s67.755-13.636,89.728-26.82c20.898-12.535,40.644-24.38,80.947-24.38
	s60.049,11.844,80.947,24.38c21.973,13.184,44.698,26.82,89.728,26.82v-17.067c-40.303,0-60.049-11.844-80.947-24.38
	C420.574,351.152,409.89,344.778,396.723,339.812z M421.197,245.928L421.197,245.928c-1.613,1.604-3.755,2.492-6.033,2.492h-0.009
	c-2.278,0-4.42-0.896-6.033-2.509l-12.049-12.092c-3.319-3.337-3.311-8.747,0.017-12.075c1.613-1.604,3.746-2.492,6.025-2.492
	c0.009,0,0.009,0,0.017,0c2.278,0,4.42,0.896,6.033,2.509l12.049,12.092c1.604,1.613,2.492,3.755,2.492,6.042
	C423.697,242.182,422.81,244.324,421.197,245.928z M401.314,138.732c0.017,0,0.043,0,0.068,0
	c11.392,0.017,22.101,4.471,30.148,12.544l12.049,12.083c11.563,11.597,14.865,28.194,10.3,42.846l-65.178-65.374
	C392.755,139.577,396.954,138.732,401.314,138.732z M371.191,151.182c0.64-0.631,1.391-1.092,2.057-1.681l71.936,72.149
	c-0.589,0.666-1.041,1.417-1.681,2.057l-5.274,5.257c-1.237-2.603-2.833-5.043-4.932-7.134l-12.049-12.092
	c-4.821-4.838-11.247-7.518-18.091-7.526c-0.009,0-0.026,0-0.043,0c-1.707,0-3.396,0.171-5.035,0.495
	c0.333-1.655,0.512-3.345,0.512-5.069c0.009-6.835-2.645-13.269-7.475-18.116l-12.049-12.083c-4.506-4.523-10.428-7.057-16.759-7.39
	L371.191,151.182z M354.918,179.462c1.613-1.604,3.746-2.492,6.025-2.492c0.009,0,0.009,0,0.017,0c2.278,0,4.42,0.896,6.033,2.509
	l12.049,12.083c1.604,1.613,2.492,3.755,2.492,6.042c0,2.278-0.896,4.42-2.509,6.033c-1.613,1.604-3.746,2.492-6.025,2.492h-0.009
	c-2.278,0-4.42-0.896-6.033-2.509l-12.049-12.083c-1.604-1.613-2.492-3.755-2.492-6.042S353.306,181.075,354.918,179.462z
	 M335.497,187.065c0.375,6.229,2.876,12.058,7.313,16.512l12.049,12.083c4.821,4.838,11.247,7.518,18.091,7.526
	c0.017,0,0.026,0,0.043,0c1.724,0,3.422-0.171,5.069-0.503c-1.647,8.124,0.649,16.896,6.929,23.194l12.049,12.092
	c1.911,1.92,4.13,3.396,6.477,4.599c-7.142,5.06-15.599,7.868-24.533,7.868c-0.017,0-0.043,0-0.068,0
	c-11.392-0.017-22.101-4.471-30.157-12.544l-12.049-12.083C320.606,229.646,320.307,203.773,335.497,187.065z M318.66,250.749
	c1.801,2.475,3.746,4.873,5.973,7.108l5.487,5.504l-5.35,4.497l-12.706-12.706L318.66,250.749z M341.325,330.621
	c-45.03,0-67.755,13.636-89.728,26.82c-20.898,12.535-40.644,24.38-80.947,24.38c-27.332,0-45.141-5.495-60.331-12.919
	l123.614-123.614l-76.638-76.638c-9.779-9.779-10.069-25.387-0.657-35.524l71.39-76.885c2.944-3.166,6.938-4.958,11.255-5.035
	c4.292-0.247,8.38,1.562,11.443,4.617c5.931,5.931,6.187,15.462,0.572,21.7l-66.799,74.214l100.77,100.762l0,0l38.494,38.494
	l41.028,41.028C357.683,331.125,349.918,330.621,341.325,330.621z"/>
<path d="M341.325,398.888c-45.03,0-67.755,13.636-89.728,26.82c-20.898,12.535-40.644,24.38-80.947,24.38
	s-60.041-11.844-80.93-24.38C67.746,412.524,45.022,398.888,0,398.888v17.067c40.303,0,60.041,11.844,80.93,24.38
	c21.973,13.184,44.689,26.82,89.719,26.82s67.755-13.636,89.728-26.82c20.898-12.535,40.644-24.38,80.947-24.38
	s60.049,11.844,80.947,24.38c21.973,13.184,44.698,26.82,89.728,26.82v-17.067c-40.303,0-60.049-11.844-80.947-24.38
	C409.079,412.524,386.355,398.888,341.325,398.888z"/>
<g>
</g>
<g>
</g>
<g>
</g>
<g>
</g>
<g>
</g>
<g>
</g>
<g>
</g>
<g>
</g>
<g>
</g>
<g>
</g>
<g>
</g>
<g>
</g>
<g>
</g>
<g>
</g>
<g>
</g>
</svg>
